<svg width="26" height="19" viewBox="0 0 26 19" fill="none" xmlns="http://www.w3.org/2000/svg">
<path d="M24.9167 10.4723H1.08333C0.485333 10.4723 0 9.98698 0 9.38898C0 8.79098 0.485333 8.30565 1.08333 8.30565H24.9167C25.5147 8.30565 26 8.79098 26 9.38898C26 9.98698 25.5147 10.4723 24.9167 10.4723ZM24.9167 2.16667H1.08333C0.485333 2.16667 0 1.68133 0 1.08333C0 0.485333 0.485333 0 1.08333 0H24.9167C25.5147 0 26 0.485333 26 1.08333C26 1.68133 25.5147 2.16667 24.9167 2.16667ZM24.9167 18.7777H1.08333C0.485333 18.7777 0 18.2924 0 17.6944C0 17.0964 0.485333 16.611 1.08333 16.611H24.9167C25.5147 16.611 26 17.0964 26 17.6944C26 18.2924 25.5147 18.7777 24.9167 18.7777Z" fill="#FB7801"/>
</svg>
