<svg width="24" height="24" viewBox="0 0 24 24" fill="none" xmlns="http://www.w3.org/2000/svg">
<path d="M21.279 10.9988V8.86622C21.2794 8.63065 21.2332 8.39733 21.1432 8.17963C21.0532 7.96193 20.9212 7.76412 20.7546 7.59755C20.588 7.43098 20.3902 7.29891 20.1725 7.20893C19.9548 7.11894 19.7215 7.07279 19.4859 7.07314H18.3195L8.78835 3.10398C8.62629 3.03553 8.45218 3.00018 8.27626 3C8.10033 2.99982 7.92615 3.03483 7.76395 3.10295C7.60175 3.17107 7.45481 3.27094 7.33177 3.39668C7.20873 3.52242 7.11208 3.6715 7.0475 3.83514L5.75056 7.07314H4.79309C4.55752 7.07279 4.3242 7.11894 4.1065 7.20893C3.88879 7.29891 3.69099 7.43098 3.52442 7.59755C3.35785 7.76412 3.22578 7.96193 3.13579 8.17963C3.0458 8.39733 2.99966 8.63065 3 8.86622V19.2069C2.99966 19.4425 3.0458 19.6758 3.13579 19.8935C3.22578 20.1112 3.35785 20.309 3.52442 20.4756C3.69099 20.6422 3.88879 20.7742 4.1065 20.8642C4.3242 20.9542 4.55752 21.0003 4.79309 21H19.4859C19.7215 21.0003 19.9548 20.9542 20.1725 20.8642C20.3902 20.7742 20.588 20.6422 20.7546 20.4756C20.9212 20.309 21.0532 20.1112 21.1432 19.8935C21.2332 19.6758 21.2794 19.4425 21.279 19.2069V17.0744C21.5118 17.0663 21.7324 16.9684 21.8947 16.8013C22.0569 16.6342 22.1482 16.4107 22.1494 16.1778V11.8953C22.1482 11.6624 22.0569 11.439 21.8947 11.2718C21.7324 11.1047 21.5118 11.0069 21.279 10.9988ZM7.857 4.1572C7.87788 4.10051 7.91033 4.04879 7.95229 4.00534C7.99425 3.96188 8.0448 3.92763 8.10072 3.90477C8.21271 3.86133 8.3369 3.86133 8.44889 3.90477L16.0564 7.07314H13.95L8.79706 5.35839C8.69075 5.32138 8.57424 5.327 8.47199 5.37407C8.36974 5.42114 8.28971 5.50599 8.24869 5.61081L7.68291 7.07314H6.69062L7.857 4.1572ZM11.1994 7.07314H8.62297L8.91021 6.31586L11.1994 7.07314ZM20.4086 19.2069C20.4083 19.4515 20.3111 19.6861 20.1381 19.8591C19.9651 20.0321 19.7306 20.1293 19.4859 20.1296H4.79309C4.54845 20.1293 4.31391 20.0321 4.14092 19.8591C3.96794 19.6861 3.87066 19.4515 3.87043 19.2069V8.86622C3.87203 8.62201 3.96975 8.38825 4.14243 8.21557C4.31512 8.04288 4.54888 7.94516 4.79309 7.94356H19.4859C19.7301 7.94516 19.9639 8.04288 20.1366 8.21557C20.3093 8.38825 20.407 8.62201 20.4086 8.86622V10.9901H16.4916C15.6837 10.9901 14.9088 11.311 14.3374 11.8824C13.7661 12.4537 13.4451 13.2286 13.4451 14.0366C13.4451 14.8445 13.7661 15.6194 14.3374 16.1908C14.9088 16.7621 15.6837 17.0831 16.4916 17.0831H20.4086V19.2069ZM21.279 16.1778C21.2784 16.1869 21.2745 16.1954 21.2681 16.2018C21.2617 16.2082 21.2532 16.212 21.2442 16.2126H16.4916C15.9145 16.2126 15.361 15.9834 14.9529 15.5753C14.5448 15.1672 14.3156 14.6137 14.3156 14.0366C14.3156 13.4594 14.5448 12.9059 14.9529 12.4979C15.361 12.0898 15.9145 11.8605 16.4916 11.8605L21.279 11.8953V16.1778Z" fill="#18CFE8"/>
<path d="M16.4917 12.7309C16.2335 12.7309 15.981 12.8075 15.7663 12.951C15.5516 13.0945 15.3843 13.2984 15.2854 13.5369C15.1866 13.7755 15.1608 14.038 15.2111 14.2913C15.2615 14.5446 15.3859 14.7772 15.5685 14.9598C15.7511 15.1424 15.9837 15.2668 16.237 15.3171C16.4902 15.3675 16.7528 15.3417 16.9913 15.2429C17.2299 15.144 17.4338 14.9767 17.5773 14.762C17.7208 14.5473 17.7973 14.2948 17.7973 14.0366C17.7973 13.6903 17.6598 13.3582 17.4149 13.1134C17.1701 12.8685 16.838 12.7309 16.4917 12.7309ZM16.4917 14.4718C16.4056 14.4718 16.3215 14.4463 16.2499 14.3985C16.1783 14.3506 16.1225 14.2827 16.0896 14.2031C16.0567 14.1236 16.048 14.0361 16.0648 13.9517C16.0816 13.8673 16.1231 13.7897 16.1839 13.7288C16.2448 13.668 16.3224 13.6265 16.4068 13.6097C16.4912 13.5929 16.5787 13.6016 16.6582 13.6345C16.7378 13.6674 16.8057 13.7232 16.8536 13.7948C16.9014 13.8664 16.9269 13.9505 16.9269 14.0366C16.9269 14.152 16.8811 14.2627 16.7994 14.3443C16.7178 14.426 16.6071 14.4718 16.4917 14.4718ZM8.22261 10.1197C8.22261 10.2351 8.17676 10.3458 8.09514 10.4274C8.01353 10.509 7.90283 10.5549 7.7874 10.5549H6.04654C5.93112 10.5549 5.82042 10.509 5.7388 10.4274C5.65718 10.3458 5.61133 10.2351 5.61133 10.1197C5.61133 10.0042 5.65718 9.89354 5.7388 9.81192C5.82042 9.7303 5.93112 9.68445 6.04654 9.68445H7.7874C7.90283 9.68445 8.01353 9.7303 8.09514 9.81192C8.17676 9.89354 8.22261 10.0042 8.22261 10.1197ZM9.96347 11.8605C9.96347 11.9759 9.91762 12.0866 9.836 12.1683C9.75438 12.2499 9.64368 12.2957 9.52826 12.2957H6.04654C5.93112 12.2957 5.82042 12.2499 5.7388 12.1683C5.65718 12.0866 5.61133 11.9759 5.61133 11.8605C5.61133 11.7451 5.65718 11.6344 5.7388 11.5528C5.82042 11.4712 5.93112 11.4253 6.04654 11.4253H9.52826C9.64368 11.4253 9.75438 11.4712 9.836 11.5528C9.91762 11.6344 9.96347 11.7451 9.96347 11.8605Z" fill="#18CFE8"/>
</svg>
