<svg width="147" height="56" viewBox="0 0 147 56" fill="none" xmlns="http://www.w3.org/2000/svg">
<g filter="url(#filter0_d_1_586)">
<rect x="8" y="6" width="131" height="40" rx="20" fill="white"/>
</g>
<path d="M54.86 33V20.86H50.2V18.6H61.93V20.86H57.27V33H54.86ZM62.5328 33V22.2H64.6628V24.83L64.4028 24.49C64.5361 24.13 64.7128 23.8033 64.9328 23.51C65.1595 23.21 65.4295 22.9633 65.7428 22.77C66.0095 22.59 66.3028 22.45 66.6228 22.35C66.9495 22.2433 67.2828 22.18 67.6228 22.16C67.9628 22.1333 68.2928 22.1467 68.6128 22.2V24.45C68.2928 24.3567 67.9228 24.3267 67.5028 24.36C67.0895 24.3933 66.7161 24.51 66.3828 24.71C66.0495 24.89 65.7761 25.12 65.5628 25.4C65.3561 25.68 65.2028 26 65.1028 26.36C65.0028 26.7133 64.9528 27.0967 64.9528 27.51V33H62.5328ZM71.6091 37.8L73.6891 32.09L73.7291 33.77L69.0191 22.2H71.5291L74.8691 30.76H74.2291L77.4791 22.2H79.8891L73.8691 37.8H71.6091ZM81.3805 33V18.6H90.0505V21.01H83.7905V24.6H88.8505V27H83.7905V33H81.3805ZM96.4663 33.3C95.3729 33.3 94.4129 33.0633 93.5863 32.59C92.7596 32.1167 92.1129 31.46 91.6463 30.62C91.1863 29.78 90.9563 28.8133 90.9563 27.72C90.9563 26.54 91.1829 25.5167 91.6363 24.65C92.0896 23.7767 92.7196 23.1 93.5263 22.62C94.3329 22.14 95.2663 21.9 96.3263 21.9C97.4463 21.9 98.3963 22.1633 99.1763 22.69C99.9629 23.21 100.546 23.9467 100.926 24.9C101.306 25.8533 101.45 26.9767 101.356 28.27H98.9663V27.39C98.9596 26.2167 98.7529 25.36 98.3463 24.82C97.9396 24.28 97.2996 24.01 96.4263 24.01C95.4396 24.01 94.7063 24.3167 94.2263 24.93C93.7463 25.5367 93.5063 26.4267 93.5063 27.6C93.5063 28.6933 93.7463 29.54 94.2263 30.14C94.7063 30.74 95.4063 31.04 96.3263 31.04C96.9196 31.04 97.4296 30.91 97.8563 30.65C98.2896 30.3833 98.6229 30 98.8563 29.5L101.236 30.22C100.823 31.1933 100.183 31.95 99.3163 32.49C98.4563 33.03 97.5063 33.3 96.4663 33.3ZM92.7463 28.27V26.45H100.176V28.27H92.7463ZM105.497 33L102.197 22.18L104.557 22.2L106.667 29.13L108.807 22.2H110.837L112.967 29.13L115.087 22.2H117.447L114.147 33H112.267L109.817 25.57L107.377 33H105.497Z" fill="#FB7801"/>
<circle cx="27" cy="26" r="15" fill="#FB7801"/>
<mask id="mask0_1_586" style="mask-type:luminance" maskUnits="userSpaceOnUse" x="17" y="15" width="21" height="21">
<path d="M17.001 15.998H37.001V35.998H17.001V15.998Z" fill="white"/>
</mask>
<g mask="url(#mask0_1_586)">
<path d="M24.9079 28.906C25.182 28.6333 25.182 28.1879 24.9079 27.9138L24.6626 27.6643L22.6767 25.6784C22.5437 25.5455 22.3683 25.4756 22.1778 25.4756C21.9928 25.4756 21.8173 25.5482 21.683 25.6784C21.5501 25.8114 21.4761 25.9868 21.4761 26.1773C21.4761 26.3623 21.5501 26.5378 21.683 26.6721L23.9156 28.906C24.1884 29.1774 24.6338 29.1802 24.9079 28.906Z" fill="white"/>
<path d="M26.1503 27.1717C26.4244 26.8989 26.4244 26.4521 26.1503 26.1794L25.6555 25.6805H25.6528L24.7852 24.8143L23.9163 23.9441C23.7861 23.8138 23.6066 23.7412 23.4215 23.7412C23.2351 23.7412 23.0556 23.8138 22.9268 23.9441C22.6527 24.2182 22.6527 24.6636 22.9268 24.9363L23.1721 25.1858L25.158 27.1717C25.4321 27.4417 25.8775 27.4417 26.1503 27.1717Z" fill="white"/>
<path d="M28.631 22.7077L26.645 20.7218C26.3819 20.4586 25.9187 20.4586 25.6528 20.7218C25.3828 20.9959 25.3787 21.4413 25.6528 21.7154L27.6387 23.7013L28.631 22.7077Z" fill="white"/>
<path d="M27.1446 24.1924L24.9093 21.9612C24.6461 21.6939 24.1829 21.6939 23.917 21.9612C23.6429 22.2339 23.6429 22.6766 23.917 22.9507L26.151 25.1847C26.4141 25.4478 26.8774 25.4478 27.1446 25.1847C27.1583 25.1682 27.172 25.1504 27.1871 25.1326C27.0528 24.8517 27.0528 24.5255 27.1871 24.2445C27.172 24.2267 27.1583 24.2102 27.1446 24.1924Z" fill="white"/>
<path d="M28.6304 21.7141L29.1251 22.2089C29.6583 21.6785 30.582 21.6785 31.111 22.2089L32.1047 23.2012L32.5597 22.7448C32.7749 22.531 33.0627 22.4227 33.3464 22.4405C34.2482 22.4967 35.1322 22.1596 35.7668 21.5209C36.5219 20.7698 36.8372 19.6967 36.6302 18.6757L34.7772 20.5286C34.6964 20.6095 34.5881 20.6438 34.4798 20.63L32.742 20.3806C32.5885 20.3601 32.4651 20.2367 32.4446 20.0832L32.1951 18.3454C32.1814 18.2371 32.2157 18.1288 32.2966 18.048L34.1495 16.195C33.1285 15.988 32.0581 16.3033 31.3043 17.0584C30.6656 17.693 30.3326 18.577 30.3847 19.4788C30.4025 19.7666 30.2942 20.0503 30.0804 20.2655L28.6304 21.7141Z" fill="white"/>
<path d="M22.4006 33.4L20.9684 34.8322C20.9012 34.8994 20.8122 34.935 20.7203 34.935C20.6902 34.935 20.66 34.9309 20.6299 34.9227L18.6727 34.3991C18.5521 34.3662 18.4576 34.2716 18.4247 34.151L17.9011 32.1939C17.8682 32.0733 17.9025 31.9445 17.9916 31.8554L19.4238 30.4232C19.5129 30.3341 19.6417 30.2998 19.7623 30.3327L21.7195 30.8563C21.8401 30.8892 21.9346 30.9837 21.9675 31.1043L22.4911 33.0615C22.524 33.1821 22.4897 33.3109 22.4006 33.4ZM34.0982 30.1354C33.5719 29.5433 33.2347 28.7922 33.147 27.9959L32.8948 25.7428C32.8304 25.1918 32.5823 24.6696 32.189 24.2736L30.617 22.7043C30.3511 22.4384 29.8879 22.4384 29.6247 22.7043L27.8883 24.4421C27.7512 24.5778 27.7512 24.7999 27.8883 24.9355C28.298 25.3467 28.9641 25.3467 29.3753 24.9355C29.7714 24.5394 30.4662 24.5394 30.8623 24.9355C31.0624 25.1356 31.1721 25.3988 31.1721 25.6797C31.1721 25.9607 31.0624 26.228 30.8623 26.4239L30.617 26.6734C29.9331 27.3573 29.9331 28.4688 30.617 29.1541L30.8623 29.4021C30.9994 29.5392 30.9994 29.7598 30.8623 29.8969C30.7965 29.9682 30.7047 30.0024 30.617 30.0024C30.5265 30.0024 30.4347 29.9682 30.3676 29.8969L30.1195 29.6516C29.1615 28.6936 29.1615 27.1366 30.1195 26.1786L30.3676 25.9292C30.4347 25.862 30.4703 25.7743 30.4703 25.6797C30.4703 25.5893 30.4347 25.4975 30.3676 25.4344C30.2346 25.3015 30.003 25.3015 29.8728 25.4344C29.2739 26.0347 28.3433 26.1046 27.6635 25.6551C27.6525 25.6619 27.6484 25.6729 27.6388 25.6797C27.4387 25.8839 27.1865 26.0128 26.9124 26.0662C27.1646 26.5884 27.081 27.2339 26.6452 27.6656C26.404 27.911 26.0874 28.0384 25.768 28.0658C25.8845 28.5291 25.768 29.0417 25.4076 29.4021C25.1335 29.6762 24.7716 29.8133 24.4139 29.8133C24.0521 29.8133 23.6944 29.6762 23.4217 29.4021L22.1786 28.1604L21.1726 29.1705C20.9615 29.3816 20.6737 29.4898 20.3859 29.4761C20.3229 29.4734 20.2461 29.4693 20.1927 29.4693C19.3512 29.4693 18.5576 29.7996 17.9614 30.3958C17.3653 30.9919 17.0391 31.7855 17.0391 32.627C17.0391 33.4726 17.3653 34.2662 17.9614 34.8624C18.5576 35.4585 19.3512 35.7847 20.1899 35.7847H20.1995C21.0424 35.7847 21.8359 35.4585 22.428 34.8624C23.0242 34.2662 23.3545 33.4726 23.3545 32.627C23.3545 32.564 23.3504 32.5009 23.3477 32.4379C23.3298 32.1501 23.4422 31.8622 23.6533 31.6512L28.8805 26.4239C29.0176 26.2869 29.2382 26.2869 29.3753 26.4239C29.5123 26.561 29.5123 26.7858 29.3753 26.9228L25.6529 30.6452L29.6247 34.6129L34.0982 30.1354Z" fill="white"/>
<path d="M19.7785 31.0654L18.6313 32.2126L19.0507 33.7777L20.6159 34.1971L21.763 33.05L21.3436 31.4848L19.7785 31.0654Z" fill="white"/>
<path d="M36.8176 31.8849L35.0811 30.1484L29.625 35.6087L29.8731 35.854C29.9416 35.9225 29.9759 36.013 29.9759 36.1034L37.0698 36.1062L37.067 31.9877C36.9766 31.9877 36.8861 31.9534 36.8176 31.8849Z" fill="white"/>
</g>
<defs>
<filter id="filter0_d_1_586" x="0" y="0" width="147" height="56" filterUnits="userSpaceOnUse" color-interpolation-filters="sRGB">
<feFlood flood-opacity="0" result="BackgroundImageFix"/>
<feColorMatrix in="SourceAlpha" type="matrix" values="0 0 0 0 0 0 0 0 0 0 0 0 0 0 0 0 0 0 127 0" result="hardAlpha"/>
<feOffset dy="2"/>
<feGaussianBlur stdDeviation="4"/>
<feComposite in2="hardAlpha" operator="out"/>
<feColorMatrix type="matrix" values="0 0 0 0 0 0 0 0 0 0 0 0 0 0 0 0 0 0 0.15 0"/>
<feBlend mode="normal" in2="BackgroundImageFix" result="effect1_dropShadow_1_586"/>
<feBlend mode="normal" in="SourceGraphic" in2="effect1_dropShadow_1_586" result="shape"/>
</filter>
</defs>
</svg>
